<?xml version="1.0" encoding="utf-8"?>

<!DOCTYPE svg PUBLIC "-//W3C//DTD SVG 1.1//EN" "http://www.w3.org/Graphics/SVG/1.1/DTD/svg11.dtd">
<svg version="1.1" id="Layer_1" xmlns="http://www.w3.org/2000/svg" xmlns:xlink="http://www.w3.org/1999/xlink" x="0px" y="0px"
	 width="331.277px" height="84.277px" viewBox="0 0 331.277 84.277" enable-background="new 0 0 331.277 84.277"
	 xml:space="preserve">
<g>
	<path d="M16.763,34.184h-1.441v-9.388H3.534v9.388H2.092V14.961h1.444v8.538h11.789v-8.538h1.441L16.763,34.184L16.763,34.184z"/>
	<path d="M28.043,34.354c-6.16,0-7.577-1.387-7.577-9.132V23.95c0-7.774,1.414-9.156,7.577-9.156h0.514
		c6.157,0,7.573,1.387,7.573,9.156v1.272c0,7.745-1.414,9.132-7.573,9.132H28.043z M28.552,33.081c5.143,0,6.104-0.989,6.104-7.857
		v-1.302c0-6.87-0.961-7.856-6.104-7.856H28.04c-5.146,0-6.104,0.987-6.104,7.856v1.302c0,6.869,0.958,7.857,6.104,7.857H28.552z"/>
	<path d="M59.647,34.184h-1.414V16.119h-0.057l-7.575,18.064h-1.645l-7.661-18.064h-0.054v18.064h-1.414V14.961h2.433l7.49,17.785
		h0.082l7.437-17.785h2.374L59.647,34.184L59.647,34.184z"/>
	<path d="M75.816,34.184H63.828V14.961h11.93v1.247H65.272v7.377h9.952v1.216h-9.952v8.145h10.545L75.816,34.184L75.816,34.184z"/>
	<path d="M87.461,34.184h-1.439V14.961h1.439V34.184z"/>
	<path d="M106.937,34.184h-2.349L93.141,16.205h-0.085v17.979h-1.414V14.961h2.346l11.449,17.951h0.085V14.961h1.414L106.937,34.184
		L106.937,34.184z"/>
	<path d="M112.591,34.184h-1.47V14.961h11.845v1.247h-10.375v7.803h9.84v1.214h-9.84V34.184z"/>
	<path d="M138.992,34.184h-1.526l-1.643-4.553h-10.036l-1.696,4.553h-1.495l7.209-19.225h2.176L138.992,34.184z M135.459,28.474
		l-4.466-12.411h-0.198l-4.639,12.411H135.459z"/>
	<path d="M145.692,34.184h-1.467V16.205h-6.418v-1.247h14.304v1.247h-6.415v17.979H145.692z"/>
	<path d="M161.409,34.354c-5.795,0-7.124-0.817-7.124-6.273v-13.12h1.471v13.004c0,4.608,0.989,5.116,5.569,5.116h0.565
		c4.578,0,5.651-0.477,5.651-5.116V14.961h1.442v13.12c0,5.425-1.385,6.273-7.182,6.273H161.409L161.409,34.354z"/>
	<path d="M187.047,34.184h-1.524l-1.641-4.553h-10.035l-1.692,4.553h-1.499l7.208-19.225h2.178L187.047,34.184z M183.514,28.474
		l-4.469-12.411h-0.196l-4.638,12.411H183.514z"/>
	<path d="M193.747,34.184h-1.47V16.205h-6.418v-1.247h14.305v1.247h-6.413L193.747,34.184L193.747,34.184z"/>
	<path d="M203.951,34.184h-1.445V14.961h1.445V34.184z"/>
	<path d="M215.229,34.354c-6.159,0-7.576-1.387-7.576-9.132V23.95c0-7.774,1.414-9.156,7.576-9.156h0.514
		c6.159,0,7.575,1.387,7.575,9.156v1.272c0,7.745-1.413,9.132-7.575,9.132H215.229z M215.738,33.081
		c5.144,0,6.104-0.989,6.104-7.857v-1.302c0-6.87-0.957-7.856-6.104-7.856h-0.513c-5.144,0-6.106,0.987-6.106,7.856v1.302
		c0,6.869,0.961,7.857,6.106,7.857H215.738z"/>
	<path d="M242.311,34.184h-2.349l-11.447-17.979h-0.085v17.979h-1.41V14.961h2.343l11.453,17.951h0.08V14.961h1.415V34.184
		L242.311,34.184z"/>
</g>
<line fill="none" stroke="#FF7D00" stroke-width="2" x1="0" y1="47" x2="313" y2="47"/>
<g>
	<g>
		<path d="M170.44,70.003h-0.935l-1.724-6.13h-0.041l-1.725,6.13h-0.95l-2.033-6.778h0.706l1.795,6.242h0.041l1.767-6.242h0.849
			l1.767,6.242h0.042l1.769-6.242h0.716L170.44,70.003z"/>
		<path d="M176.166,70.09c-2.23,0-2.756-0.598-2.756-3.31v-0.309c0-2.772,0.556-3.333,2.698-3.333h0.198
			c2.104,0,2.6,0.593,2.6,2.768v0.721h-4.817v0.229c0,2.242,0.354,2.638,2.093,2.638h0.185c1.549,0,1.921-0.336,1.921-1.668V67.7
			h0.661v0.142c0,1.738-0.692,2.246-2.57,2.246L176.166,70.09L176.166,70.09z M178.228,66.076v-0.254
			c0-1.729-0.271-2.091-1.937-2.091h-0.153c-1.695,0-2.021,0.325-2.051,2.345H178.228z"/>
		<path d="M181.34,70.003h-0.679v-9.604h0.679V70.003z"/>
		<path d="M185.819,70.09c-2.161,0-2.754-0.609-2.754-3.296v-0.367c0-2.738,0.69-3.288,2.769-3.288h0.197
			c1.982,0,2.543,0.508,2.543,2.229v0.158h-0.661v-0.128c0-1.354-0.382-1.666-1.883-1.666h-0.181c-1.694,0-2.104,0.396-2.104,2.698
			v0.366c0,2.262,0.41,2.683,2.104,2.683h0.181c1.544,0,1.924-0.339,1.924-1.709v-0.156h0.662v0.173c0,1.78-0.637,2.303-2.6,2.303
			H185.819L185.819,70.09z"/>
		<path d="M192.828,70.09c-2.204,0-2.782-0.651-2.782-3.296v-0.367c0-2.642,0.578-3.288,2.782-3.288h0.213
			c2.203,0,2.782,0.646,2.782,3.288v0.367c0,2.645-0.579,3.296-2.782,3.296H192.828L192.828,70.09z M193.027,69.495
			c1.737,0,2.118-0.435,2.118-2.698V66.43c0-2.263-0.381-2.698-2.118-2.698h-0.184c-1.737,0-2.119,0.438-2.119,2.698v0.365
			c0,2.266,0.382,2.698,2.119,2.698L193.027,69.495L193.027,69.495z"/>
		<path d="M207.128,70.003h-0.69V65.96c0-1.936-0.278-2.23-1.693-2.23h-0.142c-1.242,0-1.907,0.381-1.907,2.261V70h-0.679v-4.043
			c0-1.946-0.338-2.23-1.725-2.23h-0.141c-1.271,0-1.922,0.438-1.922,2.23V70h-0.678v-6.776h0.678v1.087h0.015
			c0.24-0.734,0.853-1.171,2.091-1.171h0.144c1.481,0,1.92,0.407,2.087,1.299h0.018c0.212-0.79,0.807-1.299,2.175-1.299h0.155
			c1.769,0,2.218,0.521,2.218,2.515L207.128,70.003L207.128,70.003z"/>
		<path d="M211.542,70.09c-2.23,0-2.756-0.598-2.756-3.31v-0.309c0-2.772,0.553-3.333,2.698-3.333h0.198
			c2.104,0,2.6,0.593,2.6,2.768v0.721h-4.817v0.229c0,2.242,0.354,2.638,2.094,2.638h0.18c1.553,0,1.921-0.336,1.921-1.668V67.7
			h0.664v0.142c0,1.738-0.692,2.246-2.571,2.246L211.542,70.09L211.542,70.09z M213.604,66.076v-0.254
			c0-1.729-0.27-2.091-1.937-2.091h-0.153c-1.695,0-2.021,0.325-2.051,2.345H213.604z"/>
		<path d="M221.467,70.09c-1.496,0-1.795-0.34-1.795-2.627V63.76h-0.959v-0.535h0.959v-1.768h0.681v1.768h3.191v0.535h-3.191v3.672
			c0,1.881,0.17,2.048,1.188,2.048h0.186c1.044,0,1.198-0.225,1.198-1.907v-0.65h0.638v0.75c0,2.037-0.396,2.419-1.88,2.419
			L221.467,70.09L221.467,70.09z"/>
		<path d="M227.427,70.09c-2.202,0-2.781-0.651-2.781-3.296v-0.367c0-2.642,0.579-3.288,2.781-3.288h0.213
			c2.203,0,2.78,0.646,2.78,3.288v0.367c0,2.645-0.577,3.296-2.78,3.296H227.427L227.427,70.09z M227.626,69.495
			c1.737,0,2.118-0.435,2.118-2.698V66.43c0-2.263-0.381-2.698-2.118-2.698h-0.183c-1.739,0-2.12,0.438-2.12,2.698v0.365
			c0,2.266,0.381,2.698,2.12,2.698L227.626,69.495L227.626,69.495z"/>
		<path d="M238.17,70.09c-2.204,0-2.781-0.651-2.781-3.296v-0.367c0-2.642,0.577-3.288,2.781-3.288h0.212
			c2.203,0,2.783,0.646,2.783,3.288v0.367c0,2.645-0.58,3.296-2.783,3.296H238.17L238.17,70.09z M238.367,69.495
			c1.737,0,2.119-0.435,2.119-2.698V66.43c0-2.263-0.382-2.698-2.119-2.698h-0.184c-1.736,0-2.119,0.438-2.119,2.698v0.365
			c0,2.266,0.383,2.698,2.119,2.698L238.367,69.495L238.367,69.495z"/>
		<path d="M248.262,70.003h-0.681v-1.113h-0.017c-0.271,0.731-0.773,1.201-2.274,1.201h-0.142c-1.864,0-2.373-0.564-2.373-2.586
			v-4.278h0.678v3.981c0,1.921,0.322,2.286,1.865,2.286h0.138c1.444,0,2.122-0.379,2.122-2.229v-4.041h0.675v6.778L248.262,70.003
			L248.262,70.003z"/>
		<path d="M252.176,70.09c-1.494,0-1.79-0.34-1.79-2.627V63.76h-0.962v-0.535h0.962v-1.768h0.679v1.768h3.19v0.535h-3.19v3.672
			c0,1.881,0.169,2.048,1.186,2.048h0.183c1.05,0,1.201-0.225,1.201-1.907v-0.65h0.639v0.75c0,2.037-0.396,2.419-1.879,2.419
			L252.176,70.09L252.176,70.09z"/>
		<path d="M260.994,70.003h-0.648v-1.006h-0.027c-0.297,0.763-0.877,1.091-2.248,1.091h-0.154c-1.978,0-2.558-0.72-2.558-3.352
			v-0.278c0-2.716,0.679-3.317,2.543-3.317h0.185c1.328,0,1.938,0.296,2.219,1.028h0.016v-3.771h0.678v9.604L260.994,70.003
			L260.994,70.003z M258.227,69.482c1.666,0,2.102-0.396,2.102-2.431v-0.889c0-1.951-0.422-2.431-2.102-2.431h-0.173
			c-1.597,0-2.021,0.411-2.021,2.698v0.354c0,2.233,0.438,2.698,2.021,2.698H258.227L258.227,69.482z"/>
		<path d="M265.504,70.09c-2.204,0-2.782-0.651-2.782-3.296v-0.367c0-2.642,0.578-3.288,2.782-3.288h0.211
			c2.204,0,2.784,0.646,2.784,3.288v0.367c0,2.645-0.58,3.296-2.784,3.296H265.504L265.504,70.09z M265.701,69.495
			c1.737,0,2.119-0.435,2.119-2.698V66.43c0-2.263-0.382-2.698-2.119-2.698h-0.184c-1.737,0-2.119,0.438-2.119,2.698v0.365
			c0,2.266,0.382,2.698,2.119,2.698L265.701,69.495L265.701,69.495z"/>
		<path d="M272.756,70.09c-2.202,0-2.781-0.651-2.781-3.296v-0.367c0-2.642,0.579-3.288,2.781-3.288h0.214
			c2.201,0,2.781,0.646,2.781,3.288v0.367c0,2.645-0.58,3.296-2.781,3.296H272.756L272.756,70.09z M272.953,69.495
			c1.737,0,2.119-0.435,2.119-2.698V66.43c0-2.263-0.382-2.698-2.119-2.698h-0.184c-1.736,0-2.119,0.438-2.119,2.698v0.365
			c0,2.266,0.383,2.698,2.119,2.698L272.953,69.495L272.953,69.495z"/>
		<path d="M278.155,70.003h-0.678v-6.778h0.661v1.153h0.027c0.254-0.848,0.807-1.242,1.979-1.242h0.114
			c1.597,0,1.903,0.493,1.903,1.987v0.479h-0.635v-0.338c0-1.272-0.236-1.525-1.496-1.525h-0.113c-1.091,0-1.767,0.423-1.767,2.375
			L278.155,70.003L278.155,70.003z"/>
		<path d="M287.639,70.003h-0.681v-9.604h0.681V70.003z"/>
		<path d="M290.295,61.471h-0.678v-1.073h0.678V61.471z M290.295,70.003h-0.678v-6.778h0.678V70.003z"/>
		<path d="M294.86,70.003h-0.918l-2.527-6.778h0.735l2.245,6.256h0.039l2.289-6.256h0.705L294.86,70.003z"/>
		<path d="M299.227,61.471h-0.679v-1.073h0.679V61.471z M299.227,70.003h-0.679v-6.778h0.679V70.003z"/>
		<path d="M306.701,70.003h-0.692v-4.023c0-1.907-0.269-2.233-1.862-2.233h-0.156c-1.426,0-2.104,0.396-2.104,2.233v4.023h-0.678
			v-6.778h0.678v1.087h0.016c0.271-0.722,0.764-1.171,2.278-1.171h0.142c1.889,0,2.384,0.509,2.384,2.542v4.32H306.701z"/>
		<path d="M310.93,72.492c-1.946,0-2.475-0.413-2.475-2.037V70.3h0.635v0.143c0,1.156,0.271,1.44,1.84,1.44h0.225
			c1.938,0,2.135-0.224,2.135-2.303v-0.948h-0.026c-0.282,0.708-0.808,1.032-2.263,1.032h-0.172c-1.848,0-2.481-0.664-2.481-3.065
			v-0.257c0-2.543,0.636-3.203,2.481-3.203h0.172c1.399,0,1.964,0.295,2.275,1.055h0.027v-0.97h0.66v6.31
			c0,2.559-0.477,2.954-2.812,2.954h-0.223L310.93,72.492L310.93,72.492z M311.155,69.072c1.781,0,2.146-0.453,2.146-2.444v-0.325
			c0-2.116-0.396-2.568-2.136-2.568h-0.181c-1.586,0-1.963,0.467-1.963,2.568v0.325c0,1.979,0.452,2.444,1.945,2.444H311.155z"/>
	</g>
</g>
</svg>
