<?xml version="1.0" encoding="utf-8"?>
<!-- Generator: Adobe Illustrator 14.0.0, SVG Export Plug-In . SVG Version: 6.00 Build 43363)  -->
<!DOCTYPE svg PUBLIC "-//W3C//DTD SVG 1.1//EN" "http://www.w3.org/Graphics/SVG/1.1/DTD/svg11.dtd">
<svg version="1.1" id="Layer_1" xmlns="http://www.w3.org/2000/svg" xmlns:xlink="http://www.w3.org/1999/xlink" x="0px" y="0px"
	 width="100px" height="100px" viewBox="0 0 100 100" enable-background="new 0 0 100 100" xml:space="preserve">
<rect x="-23.811" y="10.29" transform="matrix(0.7071 -0.7071 0.7071 0.7071 -5.7069 24.0596)" opacity="0.69" fill="#231F20" width="100.001" height="17.256"/>
<rect x="-24.811" y="10.29" transform="matrix(0.7071 -0.7071 0.7071 0.7071 -5.9998 23.3525)" fill="#F7941E" stroke="#FFFFFF" width="100.001" height="17.256"/>
<g>
	<path fill="#FFFFFF" d="M10.392,26.428l1.256-1.256l5.877,8.985l-1.276,1.276l-8.986-5.876l1.256-1.256l6.083,4.23l0.021-0.021
		L10.392,26.428z"/>
	<path fill="#FFFFFF" d="M19.966,31.717l-7.431-7.431l1.276-1.276l7.431,7.431L19.966,31.717z"/>
	<path fill="#FFFFFF" d="M15.222,21.598l1.894-1.894c1.318-1.318,2.738-1.297,4.261,0.226l2.943,2.943
		c1.524,1.524,1.544,2.944,0.227,4.262l-1.894,1.894L15.222,21.598z M22.88,26.704l0.443-0.443c0.679-0.679,0.658-1.174-0.124-1.956
		l-3.252-3.252c-0.782-0.782-1.277-0.803-1.956-0.124l-0.443,0.443L22.88,26.704z"/>
	<path fill="#FFFFFF" d="M27.802,23.88l-7.431-7.431l3.417-3.417l1.112,1.112l-2.141,2.141l1.914,1.914l1.647-1.647l1.112,1.112
		l-1.647,1.647l2.182,2.182l2.285-2.285l1.111,1.111L27.802,23.88z"/>
	<path fill="#FFFFFF" d="M26.744,13.678c-1.05-1.05-1.286-2.521,0.052-3.859c1.338-1.338,2.81-1.102,3.86-0.052l3.829,3.829
		c1.05,1.05,1.287,2.522-0.052,3.86c-1.338,1.338-2.81,1.102-3.86,0.051L26.744,13.678z M31.819,16.201
		c0.556,0.556,0.987,0.658,1.502,0.144s0.413-0.947-0.143-1.502l-3.768-3.768c-0.556-0.556-0.989-0.659-1.504-0.145
		s-0.411,0.947,0.145,1.503L31.819,16.201z"/>
</g>
</svg>
